<?xml version="1.0" encoding="UTF-8" standalone="no"?>
<!-- Created with Inkscape (http://www.inkscape.org/) -->

<svg
   width="87.761345mm"
   height="13.953751mm"
   viewBox="0 0 87.761347 13.95375"
   version="1.1"
   id="svg5"
   xml:space="preserve"
   inkscape:export-filename="logo.svg"
   inkscape:export-xdpi="70.342148"
   inkscape:export-ydpi="70.342148"
   sodipodi:docname="logo.svg"
   inkscape:version="1.2.2 (b0a8486, 2022-12-01)"
   xmlns:inkscape="http://www.inkscape.org/namespaces/inkscape"
   xmlns:sodipodi="http://sodipodi.sourceforge.net/DTD/sodipodi-0.dtd"
   xmlns="http://www.w3.org/2000/svg"
   xmlns:svg="http://www.w3.org/2000/svg"><sodipodi:namedview
     id="namedview7"
     pagecolor="#ffffff"
     bordercolor="#000000"
     borderopacity="0.25"
     inkscape:showpageshadow="2"
     inkscape:pageopacity="0.0"
     inkscape:pagecheckerboard="0"
     inkscape:deskcolor="#d1d1d1"
     inkscape:document-units="mm"
     showgrid="false"
     inkscape:zoom="62.144511"
     inkscape:cx="296.28522"
     inkscape:cy="51.702072"
     inkscape:window-width="1680"
     inkscape:window-height="930"
     inkscape:window-x="0"
     inkscape:window-y="25"
     inkscape:window-maximized="1"
     inkscape:current-layer="svg5" /><defs
     id="defs2"><clipPath
       clipPathUnits="userSpaceOnUse"
       id="clipPath25"><path
         d="M 0,65.813 H 250.524 V 0 H 0 Z"
         id="path23" /></clipPath><clipPath
       clipPathUnits="userSpaceOnUse"
       id="clipPath650"><path
         d="M 0,65.813 H 250.524 V 0 H 0 Z"
         id="path648" /></clipPath><clipPath
       clipPathUnits="userSpaceOnUse"
       id="clipPath1797"><path
         d="M 0,65.813 H 250.524 V 0 H 0 Z"
         id="path1795" /></clipPath></defs><style
     id="style265">.st0{fill:#f01414}.st1{fill:#fff}</style><g
     id="Livello_1"
     transform="matrix(0.13651014,0,0,0.13651014,-1.6073036,-1.592374)">
	<path
   class="st0"
   d="m 154.1,60 v -0.1 c 0,-9.9 7.4,-18.1 17.7,-18.1 6.4,0 10.2,2.3 13.7,5.6 l -2.7,2.9 c -3,-2.8 -6.3,-4.8 -11,-4.8 -7.8,0 -13.6,6.3 -13.6,14.4 V 60 c 0,8.1 5.9,14.5 13.6,14.5 4.8,0 8,-1.9 11.3,-5.1 l 2.6,2.5 c -3.7,3.7 -7.7,6.2 -14,6.2 C 161.5,78 154.1,70.1 154.1,60"
   id="path7397"
   style="fill:#585857" />
	<path
   class="st0"
   d="m 196,60 v -0.1 c 0,-9.7 7.3,-18.1 17.9,-18.1 10.7,0 17.8,8.4 17.8,18 0,0 0,0 0,0.1 0,9.7 -7.3,18.1 -17.9,18.1 C 203.2,78 196,69.7 196,60 m 31.6,0 v -0.1 c 0,-8 -5.8,-14.5 -13.8,-14.5 -8,0 -13.7,6.4 -13.7,14.4 v 0.1 c 0,8 5.8,14.5 13.8,14.5 8,0 13.7,-6.4 13.7,-14.4"
   id="path7399"
   style="fill:#585857" />
	<path
   class="st0"
   d="m 244.5,60 v -0.1 c 0,-9.7 7.3,-18.1 17.9,-18.1 10.7,0 17.8,8.4 17.8,18 0,0 0,0 0,0.1 0,9.7 -7.3,18.1 -17.9,18.1 -10.6,0 -17.8,-8.3 -17.8,-18 m 31.6,0 v -0.1 c 0,-8 -5.8,-14.5 -13.8,-14.5 -8,0 -13.7,6.4 -13.7,14.4 v 0.1 c 0,8 5.8,14.5 13.8,14.5 8,0 13.7,-6.4 13.7,-14.4"
   id="path7401"
   style="fill:#585857" />
	<polygon
   class="st0"
   points="294.6,42.4 298.6,42.4 298.6,73.8 318.3,73.8 318.3,77.4 294.6,77.4 "
   id="polygon7403"
   style="fill:#585857" />
	<path
   class="st1"
   d="m 329.3,60 v -0.1 c 0,-10 7.9,-18.1 18.7,-18.1 10.8,0 18.6,8.1 18.6,18 v 0.1 c 0,10 -7.9,18.1 -18.7,18.1 -10.9,0 -18.6,-8 -18.6,-18 m 29.1,0 v -0.1 c 0,-6 -4.4,-11 -10.6,-11 -6.2,0 -10.5,4.9 -10.5,10.9 v 0.1 c 0,6 4.4,11 10.6,11 6.2,0 10.5,-4.9 10.5,-10.9"
   id="path7405"
   style="fill:#ff9900" />
	<path
   class="st1"
   d="m 379.3,42.4 h 16 c 4.5,0 7.9,1.3 10.2,3.6 2,2 3,4.7 3,8 v 0.1 c 0,5.7 -3.1,9.2 -7.5,10.9 l 8.6,12.5 h -9 l -7.5,-11.2 h -0.1 -6 v 11.2 h -7.7 z m 15.5,17 c 3.8,0 5.9,-2 5.9,-5 v -0.1 c 0,-3.3 -2.3,-5 -6.1,-5 H 387 v 10.1 z"
   id="path7407"
   style="fill:#ff9900" />
	<path
   class="st1"
   d="m 433.5,42.2 h 7.1 l 15,35.3 h -8.1 l -3.2,-7.9 h -14.8 l -3.2,7.9 h -7.9 z m 8.1,20.6 -4.6,-11.4 -4.7,11.4 z"
   id="path7409"
   style="fill:#ff9900" />
	<polygon
   class="st1"
   points="490.5,64 490.5,42.4 498.1,42.4 498.1,77.4 491.6,77.4 474.6,55.2 474.6,77.4 467,77.4 467,42.4 474.1,42.4 "
   id="polygon7411"
   style="fill:#ff9900" />
	<path
   class="st1"
   d="m 511,60 v -0.1 c 0,-10 7.8,-18.1 18.4,-18.1 6.3,0 10.1,1.7 13.8,4.8 l -4.9,5.9 c -2.7,-2.3 -5.1,-3.6 -9.2,-3.6 -5.6,0 -10.1,5 -10.1,10.9 v 0.1 c 0,6.4 4.4,11.1 10.6,11.1 2.8,0 5.3,-0.7 7.3,-2.1 v -5 h -7.8 v -6.7 h 15.2 v 15.2 c -3.6,3.1 -8.6,5.6 -15,5.6 C 518.5,78 511,70.4 511,60"
   id="path7413"
   style="fill:#ff9900" />
	<polygon
   class="st1"
   points="557.8,42.4 584.2,42.4 584.2,49.3 565.4,49.3 565.4,56.4 581.9,56.4 581.9,63.2 565.4,63.2 565.4,70.6 584.4,70.6 584.4,77.4 557.8,77.4 "
   id="polygon7415"
   style="fill:#ff9900" />
	<path
   class="st0"
   d="m 265.2,100.2 h 4.1 c 2.4,0 3.9,1.4 3.9,3.4 v 0 c 0,2.3 -1.8,3.5 -4.1,3.5 h -2 v 3.3 h -1.8 v -10.2 z m 3.9,5.4 c 1.4,0 2.2,-0.8 2.2,-1.8 v 0 c 0,-1.2 -0.9,-1.8 -2.2,-1.8 H 267 v 3.7 h 2.1 z"
   id="path7417"
   style="fill:#585857" />
	<path
   class="st0"
   d="m 276.6,105.4 v 0 c 0,-2.9 2.2,-5.3 5.4,-5.3 3.2,0 5.4,2.4 5.4,5.3 v 0 c 0,2.9 -2.2,5.3 -5.4,5.3 -3.2,0 -5.4,-2.4 -5.4,-5.3 m 8.9,0 v 0 c 0,-2 -1.5,-3.7 -3.5,-3.7 -2,0 -3.5,1.6 -3.5,3.6 v 0 c 0,2 1.5,3.7 3.5,3.7 2.1,0 3.5,-1.6 3.5,-3.6"
   id="path7419"
   style="fill:#585857" />
	<polygon
   class="st0"
   points="293.8,110.6 290.3,100.2 292.2,100.2 294.7,107.8 297.2,100.2 298.7,100.2 301.2,107.8 303.7,100.2 305.6,100.2 302,110.6 300.5,110.6 297.9,103.2 295.4,110.6 "
   id="polygon7421"
   style="fill:#585857" />
	<polygon
   class="st0"
   points="309.5,100.2 317.1,100.2 317.1,101.8 311.3,101.8 311.3,104.5 316.5,104.5 316.5,106.1 311.3,106.1 311.3,108.9 317.2,108.9 317.2,110.5 309.5,110.5 "
   id="polygon7423"
   style="fill:#585857" />
	<path
   class="st0"
   d="m 321.4,100.2 h 4.6 c 1.3,0 2.3,0.4 3,1 0.5,0.6 0.9,1.3 0.9,2.2 v 0 c 0,1.7 -1,2.7 -2.5,3.1 l 2.8,3.9 H 328 l -2.5,-3.6 v 0 h -2.2 v 3.6 h -1.8 v -10.2 z m 4.4,5.1 c 1.3,0 2.1,-0.7 2.1,-1.7 v 0 c 0,-1.1 -0.8,-1.7 -2.1,-1.7 h -2.6 v 3.4 z"
   id="path7425"
   style="fill:#585857" />
	<path
   class="st0"
   d="m 340.3,106.1 v -5.9 h 1.8 v 5.8 c 0,1.9 1,2.9 2.6,2.9 1.6,0 2.6,-1 2.6,-2.9 v -5.9 h 1.8 v 5.8 c 0,3.1 -1.7,4.6 -4.4,4.6 -2.7,0.2 -4.4,-1.4 -4.4,-4.4"
   id="path7427"
   style="fill:#585857" />
	<path
   class="st0"
   d="m 353.7,100.2 h 4.1 c 2.4,0 3.9,1.4 3.9,3.4 v 0 c 0,2.3 -1.8,3.5 -4.1,3.5 h -2 v 3.3 h -1.8 v -10.2 z m 3.9,5.4 c 1.4,0 2.2,-0.8 2.2,-1.8 v 0 c 0,-1.2 -0.9,-1.8 -2.2,-1.8 h -2.1 v 3.7 h 2.1 z"
   id="path7429"
   style="fill:#585857" />
	<polygon
   class="st0"
   points="375.9,104.8 378.8,100.2 380.9,100.2 376.8,106.4 376.8,110.5 375,110.5 375,106.5 370.9,100.2 373.1,100.2 "
   id="polygon7431"
   style="fill:#585857" />
	<path
   class="st0"
   d="m 383.2,105.4 v 0 c 0,-2.9 2.2,-5.3 5.4,-5.3 3.2,0 5.4,2.4 5.4,5.3 v 0 c 0,2.9 -2.2,5.3 -5.4,5.3 -3.2,0 -5.4,-2.4 -5.4,-5.3 m 8.9,0 v 0 c 0,-2 -1.5,-3.7 -3.5,-3.7 -2,0 -3.5,1.6 -3.5,3.6 v 0 c 0,2 1.5,3.7 3.5,3.7 2,0 3.5,-1.6 3.5,-3.6"
   id="path7433"
   style="fill:#585857" />
	<path
   class="st0"
   d="m 398,106.1 v -5.9 h 1.8 v 5.8 c 0,1.9 1,2.9 2.6,2.9 1.6,0 2.6,-1 2.6,-2.9 v -5.9 h 1.8 v 5.8 c 0,3.1 -1.7,4.6 -4.4,4.6 -2.7,0.2 -4.4,-1.4 -4.4,-4.4"
   id="path7435"
   style="fill:#585857" />
	<path
   class="st0"
   d="m 411.4,100.2 h 4.6 c 1.3,0 2.3,0.4 3,1 0.5,0.6 0.9,1.3 0.9,2.2 v 0 c 0,1.7 -1,2.7 -2.5,3.1 l 2.8,3.9 H 418 l -2.5,-3.6 v 0 h -2.2 v 3.6 h -1.8 v -10.2 z m 4.4,5.1 c 1.3,0 2.1,-0.7 2.1,-1.7 v 0 c 0,-1.1 -0.8,-1.7 -2.1,-1.7 h -2.6 v 3.4 z"
   id="path7437"
   style="fill:#585857" />
	<path
   class="st0"
   d="m 430.5,100.2 h 3.8 c 3.2,0 5.5,2.2 5.5,5.1 v 0 c 0,2.9 -2.2,5.1 -5.5,5.1 h -3.8 z m 3.8,8.7 c 2.2,0 3.6,-1.5 3.6,-3.5 v 0 c 0,-2 -1.4,-3.5 -3.6,-3.5 h -2 v 7 z"
   id="path7439"
   style="fill:#585857" />
	<path
   class="st0"
   d="m 447,100.2 h 1.7 l 4.5,10.3 h -1.9 l -1,-2.5 h -4.9 l -1.1,2.5 h -1.8 z m 2.5,6.2 -1.8,-4.1 -1.8,4.1 z"
   id="path7441"
   style="fill:#585857" />
	<polygon
   class="st0"
   points="463.3,101.9 460,101.9 460,110.5 458.2,110.5 458.2,101.9 454.9,101.9 454.9,100.2 463.3,100.2 "
   id="polygon7443"
   style="fill:#585857" />
	<path
   class="st0"
   d="m 469.5,100.2 h 1.7 l 4.5,10.3 h -1.9 l -1,-2.5 h -4.9 l -1.1,2.5 H 465 Z m 2.6,6.2 -1.8,-4.1 -1.8,4.1 z"
   id="path7445"
   style="fill:#585857" />
	<path
   class="st2"
   d="m 73.4,54.9 28.9,-21.3 c 0,0 21.9,24.9 0.4,58.5 C 90.6,83.5 73.5,70.9 73.5,70.9 c 0,0 4.9,-7.3 -0.1,-16"
   id="path7447"
   style="fill:#f39200" />
	<path
   class="st3"
   d="m 62.9,11.7 c -28.2,0 -51.1,22.9 -51.1,51.1 0,28.2 22.9,51.1 51.1,51.1 C 91.1,113.9 114,91 114,62.8 114,34.6 91.1,11.7 62.9,11.7 m 10.9,51.1 c 0,6 -4.9,10.9 -10.9,10.9 -6,0 -10.9,-4.9 -10.9,-10.9 0,-6 4.9,-10.9 10.9,-10.9 6,0 10.9,4.9 10.9,10.9 M 76,55.6 101.8,36.4 c 5.2,7.5 8.2,16.6 8.2,26.4 0,9.8 -3,18.9 -8.2,26.5 L 76,70 c 1.2,-2.1 1.9,-4.6 1.9,-7.2 0,-2.6 -0.7,-5.1 -1.9,-7.2 m -13.1,54.2 c -25.9,0 -47,-21.1 -47,-47 0,-25.9 21.1,-47 47,-47 14.7,0 27.9,6.8 36.5,17.4 L 73.6,52.3 C 70.9,49.5 67.1,47.8 62.9,47.8 54.7,47.8 48,54.5 48,62.7 c 0,8.2 6.7,14.9 14.9,14.9 4.2,0 7.9,-1.7 10.6,-4.5 L 99.3,92.4 C 90.7,103 77.6,109.8 62.9,109.8"
   id="path7449"
   style="fill:#575756" />
</g></svg>
